<svg width="398" height="398" fill="none" xmlns="http://www.w3.org/2000/svg"><path d="M339.111 339.111C320.678 357.543 298.796 372.165 274.713 382.14C250.63 392.116 224.818 397.25 198.75 397.25C172.683 397.25 146.871 392.116 122.788 382.14C98.7044 372.165 76.8219 357.543 58.3895 339.111L198.75 198.75L339.111 339.111Z" fill="#F7BE16"/><path d="M339.111 58.3893C357.543 76.8217 372.165 98.7042 382.14 122.787C392.116 146.87 397.25 172.683 397.25 198.75C397.25 224.817 392.116 250.63 382.14 274.713C372.165 298.796 357.543 320.678 339.111 339.111L198.75 198.75L339.111 58.3893Z" fill="#FF502F"/><path d="M58.3894 58.3893C76.8218 39.9568 98.7043 25.3354 122.787 15.3599C146.871 5.38432 172.683 0.249973 198.75 0.24997C224.817 0.249968 250.63 5.38433 274.713 15.3599C298.796 25.3354 320.678 39.9569 339.111 58.3893L198.75 198.75L58.3894 58.3893Z" fill="#00BDAA"/><path d="M58.3895 339.111C39.957 320.678 25.3356 298.796 15.36 274.713C5.38445 250.629 0.250116 224.817 0.250114 198.75C0.250111 172.683 5.38445 146.87 15.36 122.787C25.3356 98.7042 39.957 76.8217 58.3894 58.3893L198.75 198.75L58.3895 339.111Z" fill="#614AD3"/></svg>